<svg xmlns="http://www.w3.org/2000/svg" xml:space="preserve" width="128" height="128" viewBox="0 0 24 24"><path fill="#388E3C" d="M24 9.72v.88l-11.06 5.9c-.59.31-1.29.31-1.88 0L0 10.6v-.88c0-1.03.57-1.97 1.5-2.45l9.25-4.72c.78-.4 1.72-.4 2.5 0l9.25 4.72c.93.48 1.5 1.42 1.5 2.45z"/><path fill="#ECEFF1" d="M19.25 0H4.75A2.253 2.253 0 0 0 2.5 2.25V14a2.752 2.752 0 0 0 2.75 2.75h13.5A2.752 2.752 0 0 0 21.5 14V2.25C21.5 1.009 20.49 0 19.25 0z"/><path fill="#4CAF50" d="M24 10.6v10.65c0 1.52-1.23 2.75-2.75 2.75H2.75C1.23 24 0 22.77 0 21.25V10.6l11.06 5.9c.59.31 1.29.31 1.88 0L24 10.6z"/><path fill="#607D8B" d="M10.25 5.5h-3.5a.75.75 0 0 1 0-1.5h3.5a.75.75 0 0 1 0 1.5zM10.25 10.5h-3.5a.75.75 0 0 1 0-1.5h3.5a.75.75 0 0 1 0 1.5zM15.88 12h-2.13a.75.75 0 0 1 0-1.5h2.13a.62.62 0 0 0 .62-.62.623.623 0 0 0-.62-.63h-.76a2.125 2.125 0 0 1 0-4.25h2.13a.75.75 0 0 1 0 1.5h-2.13a.62.62 0 0 0-.62.62c0 .352.278.63.62.63h.76a2.125 2.125 0 0 1 0 4.25z"/><path fill="#607D8B" d="M15.5 6.5a.75.75 0 0 1-.75-.75v-1.5a.75.75 0 0 1 1.5 0v1.5a.75.75 0 0 1-.75.75zM15.5 13.5a.75.75 0 0 1-.75-.75v-1.5a.75.75 0 0 1 1.5 0v1.5a.75.75 0 0 1-.75.75z"/></svg>