<svg xmlns="http://www.w3.org/2000/svg" xml:space="preserve" width="128" height="128" viewBox="0 0 24 24"><path fill="#8BC34A" d="M9.018 8.835a4.277 4.277 0 0 1-2.957-1.184c-.866-.833-1.078-1.894-1.283-2.92-.23-1.155-.448-2.246-1.516-3.272A.751.751 0 0 1 3.707.172L3.833.16c2.384-.24 5.351-.537 7.718 1.739.773.742 1.241 1.877 1.252 3.034.011 1.108-.381 2.117-1.104 2.839-.71.71-1.684 1.063-2.681 1.063zM18.086 7.036c-.07 0-.141-.002-.212-.006-.831-.05-1.556-.384-2.043-.94a3.4 3.4 0 0 1 .286-4.743C18.056-.398 20.48-.081 22.249.153c.29.038.581.248.668.527.087.28.052.59-.165.787-.809.728-.997 1.536-1.197 2.391-.189.811-.384 1.65-1.114 2.306-.615.553-1.482.872-2.355.872z"/><path fill="#388E3C" d="M13.879 12.06a.75.75 0 0 1-.736-.613c-.644-3.476-3.705-6.087-3.735-6.113a.75.75 0 1 1 .965-1.148c.143.12 3.504 2.989 4.244 6.987a.749.749 0 0 1-.738.887z"/><path fill="#388E3C" d="M13.88 12.058h-.002a.75.75 0 0 1-.748-.752c0-.178.064-4.388 4.733-7.199a.75.75 0 1 1 .773 1.285c-3.952 2.379-4.006 5.882-4.006 5.917a.75.75 0 0 1-.75.749z"/><path fill="#FFCC80" d="M24 19c0 .44-1.55 1.46-3.55 2.47C17.92 22.75 14.68 24 13 24c-.25 0-.55-.02-.88-.07h-.01c-2.31-.3-6.16-1.56-8.15-2.46l2.01-7.08c.04-.15.06-.29.07-.43 1.13.09 2.08.25 2.91.49.96.26 1.78.61 2.57 1.05 1.51.23 4.48.5 4.48 2.25 0 .72-.44 1.25-2 1.25s-4.25-.5-4.25-.5S12 20.03 14 20.03c1.87 0 5.47-2.2 7.57-2.49.15-.03.3-.04.43-.04 1 0 2 .5 2 1.5z"/><path fill="#607D8B" d="M3.5 22H.75a.75.75 0 0 1-.75-.75v-8.5A.75.75 0 0 1 .75 12c3.505 0 5.138 1.216 5.205 1.268a.75.75 0 0 1 .269.792l-2 7.386A.75.75 0 0 1 3.5 22z"/></svg>