<svg xmlns="http://www.w3.org/2000/svg" xml:space="preserve" width="128" height="128" viewBox="0 0 24 24"><path fill="#00BCD4" d="M3.5 24a1 1 0 0 1-1-1v-5a1 1 0 1 1 2 0v5a1 1 0 0 1-1 1z"/><path fill="#00BCD4" d="M6 21.5H1a1 1 0 1 1 0-2h5a1 1 0 1 1 0 2z"/><path fill="#F44336" d="M23 21.5h-5a1 1 0 1 1 0-2h5a1 1 0 1 1 0 2z"/><path fill="#FFC107" d="M12 0C8.69 0 6 2.69 6 6c0 1.58.61 3.07 1.71 4.19.81.82 1.26 1.82 1.29 2.81h6c.03-.99.48-1.99 1.29-2.81A5.95 5.95 0 0 0 18 6c0-3.31-2.69-6-6-6z"/><path fill="#607D8B" d="M9 13v.5a2.5 2.5 0 0 0 2.5 2.5h1a2.5 2.5 0 0 0 2.5-2.5V13H9z"/></svg>