<svg xmlns="http://www.w3.org/2000/svg" xml:space="preserve" width="128" height="128" viewBox="0 0 24 24"><path fill="#4CAF50" d="M18 17.25c0 4.16-2.11 6.75-5.5 6.75H5.75C1.78 24 0 20.61 0 17.25c0-4.3 2.63-9.67 5.81-12.1L3.26 3.12c-.59-.47-.81-1.24-.56-1.95S3.6 0 4.35 0h9.3c.75 0 1.4.46 1.65 1.17s.03 1.48-.56 1.95l-2.55 2.03c.5.38.99.84 1.45 1.35a2.26 2.26 0 0 0-2.14 2.25v2.5c-.17.08-.33.19-.47.31-.42.35-.7.86-.76 1.44-.02.08-.02.16-.02.25 0 1.24 1.01 2.25 2.25 2.25h5.37c.08.6.13 1.18.13 1.75z"/><path fill="#388E3C" d="M14.25 4.5H3.75a.75.75 0 0 0 0 1.5h10.5a.75.75 0 0 0 0-1.5z"/><path fill="#ECEFF1" d="M11.5 16.37c0 1.18-.95 2.13-2.12 2.13H7.25c-.41 0-.75-.34-.75-.75s.34-.75.75-.75h2.13a.625.625 0 0 0 0-1.25h-.76c-1.17 0-2.12-.95-2.12-2.12 0-1.18.95-2.13 2.12-2.13h2.13c.1 0 .19.02.28.06-.42.35-.7.86-.76 1.44H8.62a.625.625 0 0 0 0 1.25h.76c1.17 0 2.12.95 2.12 2.12z"/><path fill="#ECEFF1" d="M9 13a.75.75 0 0 1-.75-.75v-1.5a.75.75 0 0 1 1.5 0v1.5A.75.75 0 0 1 9 13zM9 20a.75.75 0 0 1-.75-.75v-1.5a.75.75 0 0 1 1.5 0v1.5A.75.75 0 0 1 9 20z"/><path fill="#2196F3" d="M22.25 4h-2.5a.75.75 0 0 0-.75.75v8.5c0 .414.336.75.75.75h2.5a.75.75 0 0 0 .75-.75v-8.5a.75.75 0 0 0-.75-.75z"/><path fill="#64B5F6" d="M16.25 8h-2.5a.75.75 0 0 0-.75.75v4.5c0 .414.336.75.75.75h2.5a.75.75 0 0 0 .75-.75v-4.5a.75.75 0 0 0-.75-.75z"/><path fill="#607D8B" d="M23.25 14h-10.5a.75.75 0 0 1 0-1.5h10.5a.75.75 0 0 1 0 1.5z"/></svg>